HIERARCHY
ROOT Hips
{
  OFFSET -8.84179 20.0128 0.897337
  CHANNELS 6 Xposition Yposition Zposition Zrotation Xrotation Yrotation
  JOINT Bip01_Pelvis
  {
    OFFSET 0 0 0
    CHANNELS 6 Xposition Yposition Zposition Zrotation Xrotation Yrotation
    JOINT BN_Tail_01
    {
      OFFSET -1.24087 -0.718302 0
      CHANNELS 6 Xposition Yposition Zposition Zrotation Xrotation Yrotation
      JOINT BN_Tail_02
      {
        OFFSET 6.82381 0 0
        CHANNELS 6 Xposition Yposition Zposition Zrotation Xrotation Yrotation
        JOINT BN_Tail_03
        {
          OFFSET 8.76082 0 0
          CHANNELS 6 Xposition Yposition Zposition Zrotation Xrotation Yrotation
          JOINT BN_Tail_04
          {
            OFFSET 7.66999 0 0
            CHANNELS 6 Xposition Yposition Zposition Zrotation Xrotation Yrotation
            End Site
            {
              OFFSET 0 0 0
            }
          }
        }
      }
    }
    JOINT Bip01_Spine
    {
      OFFSET 1.33812 0.096014 0.0297562
      CHANNELS 6 Xposition Yposition Zposition Zrotation Xrotation Yrotation
      JOINT Bip01_R_Thigh
      {
        OFFSET -1.30135 0.103306 -2.49297
        CHANNELS 6 Xposition Yposition Zposition Zrotation Xrotation Yrotation
        JOINT Bip01_R_Calf
        {
          OFFSET 8.39601 0 0
          CHANNELS 6 Xposition Yposition Zposition Zrotation Xrotation Yrotation
          JOINT Bip01_R_HorseLink
          {
            OFFSET 9.35807 0 0
            CHANNELS 6 Xposition Yposition Zposition Zrotation Xrotation Yrotation
            JOINT Bip01_R_Foot
            {
              OFFSET 4.27819 0 0
              CHANNELS 6 Xposition Yposition Zposition Zrotation Xrotation Yrotation
              JOINT Bip01_R_Toe0
              {
                OFFSET 1.32445 2.68719 0
                CHANNELS 6 Xposition Yposition Zposition Zrotation Xrotation Yrotation
                JOINT Bip01_R_Toe0Nub
                {
                  OFFSET 0.282271 0 0
                  CHANNELS 6 Xposition Yposition Zposition Zrotation Xrotation Yrotation
                  End Site
                  {
                    OFFSET 0 0 0
                  }
                }
              }
            }
          }
        }
      }
      JOINT Bip01_L_Thigh
      {
        OFFSET -1.37978 -0.0398788 2.39225
        CHANNELS 6 Xposition Yposition Zposition Zrotation Xrotation Yrotation
        JOINT Bip01_L_Calf
        {
          OFFSET 8.39601 0 0
          CHANNELS 6 Xposition Yposition Zposition Zrotation Xrotation Yrotation
          JOINT Bip01_L_HorseLink
          {
            OFFSET 9.35808 0 0
            CHANNELS 6 Xposition Yposition Zposition Zrotation Xrotation Yrotation
            JOINT Bip01_L_Foot
            {
              OFFSET 4.27819 0 0
              CHANNELS 6 Xposition Yposition Zposition Zrotation Xrotation Yrotation
              JOINT Bip01_L_Toe0
              {
                OFFSET 1.32445 2.68719 0
                CHANNELS 6 Xposition Yposition Zposition Zrotation Xrotation Yrotation
                JOINT Bip01_L_Toe0Nub
                {
                  OFFSET 0.282267 0 0
                  CHANNELS 6 Xposition Yposition Zposition Zrotation Xrotation Yrotation
                  End Site
                  {
                    OFFSET 0 0 0
                  }
                }
              }
            }
          }
        }
      }
      JOINT Bip01_Spine1
      {
        OFFSET 4.77812 -0.00598526 -2.03848e-005
        CHANNELS 6 Xposition Yposition Zposition Zrotation Xrotation Yrotation
        JOINT Bip01_Spine2
        {
          OFFSET 7.52904 -0.00557518 -8.38637e-005
          CHANNELS 6 Xposition Yposition Zposition Zrotation Xrotation Yrotation
          JOINT Bip01_Neck
          {
            OFFSET 8.17986 0.436998 0.000127075
            CHANNELS 6 Xposition Yposition Zposition Zrotation Xrotation Yrotation
            JOINT Bip01_R_Clavicle
            {
              OFFSET -2.1244 -3.91239 -2.44847
              CHANNELS 6 Xposition Yposition Zposition Zrotation Xrotation Yrotation
              JOINT Bip01_R_UpperArm
              {
                OFFSET 6.62478 0 0
                CHANNELS 6 Xposition Yposition Zposition Zrotation Xrotation Yrotation
                JOINT Bip01_R_Forearm
                {
                  OFFSET 7.46098 0 0
                  CHANNELS 6 Xposition Yposition Zposition Zrotation Xrotation Yrotation
                  JOINT Bip01_R_Hand
                  {
                    OFFSET 7.80543 0 0
                    CHANNELS 6 Xposition Yposition Zposition Zrotation Xrotation Yrotation
                    JOINT Bip01_R_Finger0
                    {
                      OFFSET 2.2294 0.674378 0.135623
                      CHANNELS 6 Xposition Yposition Zposition Zrotation Xrotation Yrotation
                      JOINT Bip01_R_Finger0Nub
                      {
                        OFFSET 3.57154 0 0
                        CHANNELS 6 Xposition Yposition Zposition Zrotation Xrotation Yrotation
                        End Site
                        {
                          OFFSET 0 0 0
                        }
                      }
                    }
                  }
                }
              }
            }
            JOINT Bip01_L_Clavicle
            {
              OFFSET -2.28998 -4.09919 1.94072
              CHANNELS 6 Xposition Yposition Zposition Zrotation Xrotation Yrotation
              JOINT Bip01_L_UpperArm
              {
                OFFSET 6.62478 0 0
                CHANNELS 6 Xposition Yposition Zposition Zrotation Xrotation Yrotation
                JOINT Bip01_L_Forearm
                {
                  OFFSET 7.46098 0 0
                  CHANNELS 6 Xposition Yposition Zposition Zrotation Xrotation Yrotation
                  JOINT Bip01_L_Hand
                  {
                    OFFSET 7.80543 0 0
                    CHANNELS 6 Xposition Yposition Zposition Zrotation Xrotation Yrotation
                    JOINT Bip01_L_Finger0
                    {
                      OFFSET 2.2294 0.674378 -0.135623
                      CHANNELS 6 Xposition Yposition Zposition Zrotation Xrotation Yrotation
                      JOINT Bip01_L_Finger0Nub
                      {
                        OFFSET 3.57153 0 0
                        CHANNELS 6 Xposition Yposition Zposition Zrotation Xrotation Yrotation
                        End Site
                        {
                          OFFSET 0 0 0
                        }
                      }
                    }
                  }
                }
              }
            }
            JOINT Bip01_Neck1
            {
              OFFSET 3.78076 -0.00285482 1.52588e-005
              CHANNELS 6 Xposition Yposition Zposition Zrotation Xrotation Yrotation
              JOINT Bip01_Head
              {
                OFFSET 3.62738 0 0
                CHANNELS 6 Xposition Yposition Zposition Zrotation Xrotation Yrotation
                JOINT BN_Beard_L
                {
                  OFFSET 6.36381 2.6665 1.018
                  CHANNELS 6 Xposition Yposition Zposition Zrotation Xrotation Yrotation
                  End Site
                  {
                    OFFSET 0 0 0
                  }
                }
                JOINT BN_Beard_R
                {
                  OFFSET 6.3638 2.6665 -1.01806
                  CHANNELS 6 Xposition Yposition Zposition Zrotation Xrotation Yrotation
                  End Site
                  {
                    OFFSET 0 0 0
                  }
                }
                JOINT BN_Mouth
                {
                  OFFSET 0.165208 0.881832 -2.79663e-005
                  CHANNELS 6 Xposition Yposition Zposition Zrotation Xrotation Yrotation
                  JOINT BN_Thouge_01
                  {
                    OFFSET 4.3022 0.00850105 0
                    CHANNELS 6 Xposition Yposition Zposition Zrotation Xrotation Yrotation
                    JOINT BN_Thouge_02
                    {
                      OFFSET 1.50253 0 0
                      CHANNELS 6 Xposition Yposition Zposition Zrotation Xrotation Yrotation
                      End Site
                      {
                        OFFSET 0 0 0
                      }
                    }
                  }
                }
                JOINT BN_Ear_L
                {
                  OFFSET 1.27954 -1.37165 2.10918
                  CHANNELS 6 Xposition Yposition Zposition Zrotation Xrotation Yrotation
                  End Site
                  {
                    OFFSET 0 0 0
                  }
                }
                JOINT BN_Ear_R
                {
                  OFFSET 1.27953 -1.37164 -2.1093
                  CHANNELS 6 Xposition Yposition Zposition Zrotation Xrotation Yrotation
                  End Site
                  {
                    OFFSET 0 0 0
                  }
                }
                JOINT Bip01_HeadNub
                {
                  OFFSET 7.94507 0 0
                  CHANNELS 6 Xposition Yposition Zposition Zrotation Xrotation Yrotation
                  End Site
                  {
                    OFFSET 0 0 0
                  }
                }
              }
            }
          }
        }
      }
    }
  }
}
MOTION
Frames:	4
Frame Time:	0.0333333
-8.32805 4.85929 0 97.0615 -89.9999 104.141 0 0 0 -90 2.17593 -87.4554 -1.24088 -0.718302 2.5481e-006 38.6086 12.2698 108.124 6.82381 9.53674e-007 2.86102e-006 -57.9353 -29.0402 -122.579 8.76082 5.00679e-006 2.86102e-006 2.03899 22.7868 -43.8301 7.66999 5.96047e-008 0 -38.5419 -24.094 6.58382 1.33942 0.0444269 0.0595427 -2.94197 -0.0999394 -0.441494 -1.35462 -0.108753 -2.49335 -106.888 -10.6361 167.57 8.39601 4.76837e-007 -4.44089e-016 -143.175 -3.70833e-006 1.13746e-006 9.35807 2.38419e-006 -8.88179e-016 153.652 1.65214e-005 3.00254e-006 4.2782 0 4.44089e-016 -114.295 -10.0069 -14.6543 1.32445 2.68719 4.44089e-016 90 -1.73205e-005 -1.00249e-005 0.282265 -7.05769e-010 -4.44089e-016 4.72534e-008 3.69137e-008 2.93435e-009 -1.31697 -0.117268 2.39445 -103.357 15.0366 -166.043 8.39601 4.76837e-007 2.38419e-007 -139.418 1.36071e-005 -1.08186e-005 9.35807 0 -4.44089e-016 158.733 -8.4601e-006 -4.57372e-006 4.27819 2.38419e-007 -4.44089e-016 -119.512 7.15758 15.4564 1.32445 2.68719 0 89.0865 0.0548531 -0.0037488 0.282265 1.38778e-017 0 -180 -2.00794e-006 -1.03055e-007 4.78009 -0.00552559 1.26809e-005 22.7922 -0.129296 -0.732521 7.53427 -0.00374126 8.63522e-005 48.5897 -0.866659 -0.152497 8.17902 0.438047 -1.7792e-005 -64.366 0.324065 -0.0171516 -0.248732 -4.58593 -2.17214 -116.778 -74.743 134.08 6.62478 4.76837e-007 -1.90735e-006 84.9697 -3.9705 -109.662 7.46098 -4.76837e-007 -1.19209e-007 -45.3926 -1.0601e-005 4.31199e-006 7.80543 -2.38419e-007 1.19209e-007 8.67783 -3.25579 -5.29473 2.2294 0.674378 0.135623 -82.9646 -8.34925 6.11084 3.57153 1.19209e-007 -1.19209e-007 -180 -1.00703e-005 2.17708e-007 -0.247406 -4.56107 2.22406 -114.45 76.3183 -136.69 6.62478 0 3.55271e-015 74.7017 0.494923 104.709 7.46098 0 1.19209e-007 -43.4329 2.85096e-005 2.68267e-005 7.80544 2.38419e-007 4.44089e-016 8.89535 -14.7055 -1.66884 2.2294 0.674378 -0.135623 -85.9501 3.17474 -5.69522 3.57153 1.1921e-007 -1.19209e-007 6.15919e-008 4.67244e-008 -1.27438e-007 3.78079 -0.00284995 7.6294e-006 9.41869 -0.14824 0.0582541 3.62738 4.44089e-016 -2.77556e-017 78.8429 -0.541861 0.0170637 6.3638 2.6665 1.018 67.6959 -24.2284 -107.439 6.3638 2.6665 -1.01806 -109.244 -29.2966 77.2778 0.165206 0.881834 -2.79248e-005 -152.666 7.01671e-015 -180 4.30221 0.00849915 0 15.0149 -2.11947e-005 -1.22295e-005 1.50253 1.90735e-006 0 11.687 -1.49148e-005 1.33152e-005 1.27954 -1.37165 2.10918 -131.38 -55.0077 -66.9282 1.27953 -1.37165 -2.1093 45.4499 -52.0292 117.434 7.94507 -5.72205e-006 0 -3.34797e-007 -4.54344e-012 1.79736e-012 
-8.15695 5.20281 1.65893e-008 101.234 -89.9999 110.971 0 0 0 -89.9748 3.54906 -87.8009 -1.24088 -0.718302 2.5481e-006 38.4881 12.4032 108.235 6.82381 9.53674e-007 2.86102e-006 -57.8468 -29.236 -122.255 8.76082 5.00679e-006 2.86102e-006 2.09489 22.4327 -43.982 7.66999 5.96047e-008 -3.55271e-015 -38.5308 -23.9461 6.25206 1.33942 0.0444269 0.0595427 -2.73261 -0.190822 -0.133247 -1.35462 -0.108753 -2.49335 -104.406 -10.8305 167.69 8.39601 4.76837e-007 -1.77636e-015 -141.725 -4.21631e-006 5.4916e-007 9.35807 2.38419e-006 3.10863e-015 155.347 1.87311e-005 -2.12439e-006 4.2782 -8.88179e-016 8.88179e-016 -113.511 -10.8347 -14.095 1.32445 2.68719 1.47198e-011 90 -1.73204e-005 -1.00252e-005 0.282265 -7.05771e-010 4.44089e-016 4.72534e-008 3.69137e-008 2.93435e-009 -1.31697 -0.117268 2.39445 -101.375 14.9999 -166.314 8.39601 4.76837e-007 2.38419e-007 -138.24 7.35681e-006 -1.78167e-005 9.35807 -6.21725e-015 -1.77636e-015 159.892 -8.60572e-006 -4.46107e-006 4.27819 2.38419e-007 0 -118.473 7.81583 14.7581 1.32445 2.68719 -9.39271e-011 89.0865 0.0548531 -0.0037488 0.282265 -7.07768e-016 -8.88178e-016 -180 -2.00795e-006 -1.0121e-005 4.78009 -0.00552559 1.26809e-005 24.1247 0.232723 -0.337493 7.53427 -0.00374126 8.63522e-005 46.1001 -1.71346 -0.45899 8.17902 0.438047 -1.77922e-005 -62.5237 -0.278067 0.117835 -0.248732 -4.58593 -2.17214 -116.402 -74.943 136.194 6.62478 4.76837e-007 -1.90735e-006 85.452 -3.90813 -109.853 7.46098 -4.76837e-007 -1.19209e-007 -40.9115 7.75712e-006 -1.54621e-005 7.80543 -2.38419e-007 1.19209e-007 4.25049 -3.98217 -5.71616 2.2294 0.674378 0.135623 -84.8351 -8.58825 5.87083 3.57154 1.19209e-007 -1.19209e-007 -180 -1.00703e-005 -9.8002e-006 -0.247406 -4.56107 2.22406 -118.745 76.1692 -133.956 6.62478 0 3.55271e-015 75.0821 0.151849 104.161 7.46098 5.32907e-015 1.19209e-007 -38.838 2.45513e-005 3.16769e-005 7.80544 2.38419e-007 1.9984e-015 6.29566 -14.5181 -0.96637 2.2294 0.674378 -0.135623 -88.4375 3.40923 -5.55375 3.57153 1.1921e-007 -1.19209e-007 6.15919e-008 4.67244e-008 -1.27438e-007 3.78079 -0.00284995 7.6294e-006 5.45081 -0.156187 -0.365416 3.62738 1.77636e-015 2.22045e-016 82.1243 0.39987 -0.181184 6.3638 2.6665 1.018 67.7824 -24.4065 -107.695 6.3638 2.6665 -1.01806 -109.338 -29.2387 76.9019 0.165206 0.881834 -2.79249e-005 -152.481 1.52588e-005 -180 4.30221 0.00849915 -1.07592e-012 15.0149 -2.11935e-005 -1.22276e-005 1.50253 1.90735e-006 -1.66533e-016 11.687 -1.49176e-005 1.33169e-005 1.27954 -1.37165 2.10918 -131.409 -54.6565 -65.8004 1.27953 -1.37165 -2.1093 45.0333 -51.82 117.961 7.94507 -5.72205e-006 3.88578e-016 -3.34797e-007 -4.54355e-012 1.79736e-012 
-7.99509 5.55202 3.33949e-008 98.7828 -89.9999 111.158 0 0 0 -89.9569 4.95864 -88.1669 -1.24088 -0.718302 2.5481e-006 38.1541 12.7715 108.541 6.82381 9.53674e-007 2.86102e-006 -57.5912 -29.7643 -121.352 8.76082 5.00679e-006 2.86102e-006 2.24071 21.4616 -44.4026 7.66999 5.96046e-008 -5.32907e-015 -38.4897 -23.5355 5.344 1.33942 0.0444269 0.0595427 -2.56361 -0.27322 0.187911 -1.35462 -0.108753 -2.49335 -101.989 -10.9946 167.804 8.39601 4.76837e-007 -1.77636e-015 -140.091 -9.42888e-006 -5.58382e-006 9.35807 2.38419e-006 3.10863e-015 156.738 1.50295e-005 5.89938e-006 4.2782 1.33227e-015 1.77636e-015 -112.753 -11.611 -13.4903 1.32445 2.68719 2.18847e-011 90 -1.73204e-005 -1.00253e-005 0.282265 -7.05768e-010 -4.44089e-016 4.72534e-008 3.69137e-008 2.93435e-009 -1.31697 -0.117268 2.39445 -99.4177 14.9351 -166.576 8.39601 4.76837e-007 2.38419e-007 -136.897 6.93161e-006 -1.79579e-005 9.35807 4.44089e-015 -8.88178e-016 160.808 -8.22569e-006 -5.81954e-006 4.27819 2.38419e-007 8.88178e-016 -117.459 8.40857 14.0342 1.32445 2.68719 -1.90224e-010 89.0865 0.0548531 -0.0037488 0.282265 -1.83187e-015 -4.44089e-016 -180 -2.00795e-006 -1.0121e-005 4.78009 -0.00552559 1.26809e-005 25.5228 0.603117 0.0466307 7.53427 -0.00374126 8.63522e-005 43.5886 -2.54084 -0.797172 8.17902 0.438047 -1.77925e-005 -60.672 -0.879456 0.271179 -0.248732 -4.58593 -2.17214 -116.108 -74.5916 140.175 6.62478 4.76837e-007 -1.90735e-006 83.7855 -5.72273 -109.896 7.46098 -4.76837e-007 -1.19209e-007 -42.7433 -4.20445e-006 -1.31517e-006 7.80543 -2.38419e-007 1.19209e-007 2.9268 1.09462 -6.70793 2.2294 0.674378 0.135623 -67.4207 -6.16466 7.7261 3.57153 1.19209e-007 -1.19209e-007 -180 -1.00703e-005 -9.8002e-006 -0.247406 -4.56107 2.22406 -122.976 75.9732 -131.12 6.62478 1.77636e-015 1.06581e-014 75.6208 -1.41661 103.538 7.46098 7.99361e-015 1.19209e-007 -32.1937 4.22739e-005 5.59051e-006 7.80544 2.38419e-007 4.44089e-016 2.92944 -14.3561 -0.218463 2.2294 0.674378 -0.135623 -91.9477 3.71752 -5.33971 3.57153 1.19209e-007 -1.19209e-007 6.15919e-008 4.67244e-008 -1.27438e-007 3.78079 -0.00284995 7.6294e-006 1.51862 -0.127335 -0.801901 3.62738 -6.66134e-016 0 85.5056 1.33686 -0.431309 6.3638 2.6665 1.018 67.9543 -24.8303 -108.358 6.3638 2.6665 -1.01806 -109.598 -29.0649 75.9339 0.165206 0.881834 -2.79249e-005 -152.013 0.00062561 180 4.30221 0.00849915 -1.74347e-012 15.0149 -2.11919e-005 -1.22264e-005 1.50253 1.90735e-006 1.11022e-016 11.687 -1.49188e-005 1.33181e-005 1.27954 -1.37165 2.10918 -131.603 -53.68 -63.0382 1.27953 -1.37165 -2.1093 43.9393 -51.2681 119.28 7.94507 -5.72205e-006 5.82867e-016 -3.34797e-007 -4.54332e-012 1.79771e-012 
-7.83296 5.9074 5.04848e-008 103.248 -89.9999 118.295 0 0 0 -89.9328 6.39573 -88.5401 -1.24088 -0.718302 2.5481e-006 37.616 13.3622 109.022 6.82381 9.53674e-007 2.86102e-006 -57.1473 -30.5653 -119.884 8.76082 5.00679e-006 2.86102e-006 2.44757 19.9328 -45.0832 7.66999 5.96047e-008 1.77636e-015 -38.3932 -22.8718 3.9146 1.33942 0.0444269 0.0595427 -1.91124 -0.356198 0.528725 -1.35462 -0.108753 -2.49335 -100.161 -11.1252 167.92 8.39601 4.76837e-007 -1.33227e-015 -138.304 -3.81967e-006 1.1998e-006 9.35807 2.38419e-006 3.55271e-015 157.915 1.67439e-005 1.65501e-006 4.2782 -4.44089e-016 -1.77636e-015 -112.02 -12.338 -12.8397 1.32445 2.68719 2.51692e-011 90 -1.73203e-005 -1.00254e-005 0.282265 -7.05772e-010 -8.88179e-016 4.72534e-008 3.69137e-008 2.93435e-009 -1.31697 -0.117268 2.39445 -98.0148 14.8551 -166.834 8.39601 4.76837e-007 2.38419e-007 -135.417 6.45573e-006 -1.81022e-005 9.35807 -2.22045e-015 0 161.552 -1.48261e-005 1.36484e-005 4.27819 2.38419e-007 0 -116.464 8.93806 13.2801 1.32445 2.68719 -2.84018e-010 89.0865 0.054853 -0.0037488 0.282265 -2.72699e-015 -4.44089e-016 -180 -2.00795e-006 -1.0121e-005 4.78009 -0.00552559 1.26809e-005 26.4966 0.954631 0.404784 7.53427 -0.00374126 8.63522e-005 41.3413 -3.31422 -1.16247 8.17902 0.438047 -1.77927e-005 -59.1907 -1.34426 0.420835 -0.248732 -4.58593 -2.17214 -116.073 -73.9915 144.152 6.62478 4.76837e-007 -1.90735e-006 81.2415 -9.17611 -110.015 7.46098 -4.76837e-007 -1.19209e-007 -48.7003 -1.03252e-005 4.19718e-006 7.80543 -2.38419e-007 1.19209e-007 4.17374 8.20744 -7.74016 2.2294 0.674378 0.135623 -44.5272 -2.46146 8.9087 3.57153 1.19209e-007 -1.19209e-007 -180 -1.00703e-005 -9.8002e-006 -0.247406 -4.56107 2.22406 -126.278 75.8035 -128.723 6.62478 -8.88179e-016 1.42109e-014 76.223 -4.05342 102.902 7.46098 6.66134e-015 1.19209e-007 -24.0466 3.24718e-005 2.15471e-005 7.80544 2.38419e-007 -4.44089e-016 -1.18055 -14.1921 0.537991 2.2294 0.674378 -0.135623 -96.2723 4.07231 -5.05204 3.57153 1.19209e-007 -1.19209e-007 6.15919e-008 4.67244e-008 -1.27438e-007 3.78079 -0.00284995 7.6294e-006 -2.09323 -0.155617 -1.04947 3.62738 2.44249e-015 0 87.6407 1.92703 -0.880519 6.3638 2.6665 1.018 68.0943 -25.3665 -109.33 6.3638 2.6665 -1.01806 -110.011 -28.7508 74.5327 0.165206 0.881834 -2.79249e-005 -151.35 1.52588e-005 -180 4.30221 0.00849915 -1.2263e-012 15.0149 -2.11925e-005 -1.22273e-005 1.50253 1.90735e-006 -1.94289e-016 11.687 -1.49183e-005 1.33173e-005 1.27954 -1.37165 2.10918 -132.182 -52.0979 -59.3819 1.27953 -1.37165 -2.1093 42.2952 -50.4337 121.103 7.94507 -5.72205e-006 4.44089e-016 -3.34797e-007 -4.54352e-012 1.79701e-012 
